<?xml version="1.0" encoding="UTF-8"?>
<svg id="Layer_1" xmlns="http://www.w3.org/2000/svg" version="1.1" viewBox="0 0 150 150">
  <!-- Generator: Adobe Illustrator 29.1.0, SVG Export Plug-In . SVG Version: 2.1.0 Build 142)  -->
  <path d="M75,140.6c-36.2,0-65.6-29.4-65.6-65.6S38.8,9.4,75,9.4s65.6,29.4,65.6,65.6-29.4,65.6-65.6,65.6ZM75,0C33.6,0,0,33.6,0,75s33.6,75,75,75,75-33.6,75-75S116.4,0,75,0ZM38.9,68.9l32.8,32.8c1.8,1.8,4.8,1.8,6.6,0l32.8-32.8c1.8-1.8,1.8-4.8,0-6.6s-4.8-1.8-6.6,0l-29.5,29.5-29.5-29.5c-1.8-1.8-4.8-1.8-6.6,0s-1.8,4.8,0,6.6Z"/>
</svg>